<svg width="201" height="176" viewBox="0 0 201 176" fill="none" xmlns="http://www.w3.org/2000/svg">
<path d="M148.545 153.719C143.426 149.26 138.638 142.602 138.638 133.294L108.577 123.514L93.6937 133.294C101.489 157.554 124.505 169.99 136.442 174.958C140.77 176.76 145.703 175.781 149.101 172.458C154.365 167.31 154.086 158.542 148.545 153.719Z" fill="url(#paint0_linear_7_38)"/>
<path d="M138.638 133.294L108.577 123.514L93.6937 133.294C95.2906 138.269 97.536 142.737 100.186 146.753H142.51C140.209 143.078 138.638 138.621 138.638 133.294Z" fill="#7A5A9F"/>
<path d="M185.607 76.6804C187.081 72.6224 187.899 68.226 187.899 63.6288C187.899 44.354 173.693 28.5484 155.595 26.928C151.145 11.879 137.695 0.9375 121.791 0.9375C113.746 0.9375 106.331 3.74096 100.389 8.45649C94.4468 3.74096 87.0326 0.9375 78.9873 0.9375C63.0828 0.9375 49.6332 11.879 45.1859 26.9307C27.0883 28.5484 12.8824 44.3567 12.8824 63.6315C12.8824 68.2288 13.6968 72.6252 15.1744 76.6832C6.14597 81.7811 0 91.7459 0 103.177C0 119.786 12.9668 133.294 28.9062 133.294H171.872C187.811 133.294 200.778 119.786 200.778 103.177C200.778 91.7459 194.635 81.7811 185.607 76.6804Z" fill="url(#paint1_linear_7_38)"/>
<path d="M134.83 24.7171C132.472 22.1833 129.42 20.3207 126.238 19.4734C123.935 18.8599 122.544 16.4168 123.135 14.015C123.725 11.616 126.067 10.1661 128.373 10.7796C133.141 12.0507 137.509 14.7083 141.011 18.4692C142.666 20.2465 142.626 23.0884 140.918 24.8134C139.211 26.5384 136.485 26.4972 134.83 24.7171Z" fill="#F4C3DC"/>
<path d="M103.03 23.2176C101.611 21.2285 102.009 18.4195 103.92 16.9394C105.488 15.7261 107.594 14.1689 109.967 12.8924C112.079 11.7561 114.676 12.6173 115.77 14.821C116.861 17.0219 116.032 19.7291 113.92 20.8653C112.096 21.8447 110.366 23.1323 109.057 24.142C107.146 25.6221 104.45 25.2067 103.03 23.2176Z" fill="#F4C3DC"/>
<path d="M50.5118 74.0198C47.4461 71.5464 43.979 69.5931 40.2327 68.2698C43.0482 66.0936 45.5322 63.1801 46.687 59.3036C47.2163 57.5291 46.2652 55.6418 44.5607 55.0916C42.8592 54.5413 41.0471 55.5318 40.5177 57.3063C39.3688 61.1579 35.6719 63.6725 32.772 65.1032C31.7452 65.6094 30.7417 66.0193 29.8313 66.3494C29.523 66.3412 29.2176 66.3302 28.9064 66.3302C23.3538 66.3302 18.1036 67.6673 13.4294 70.0415C13.8163 72.3333 14.4009 74.5535 15.1746 76.6801C19.2613 74.3719 23.9384 73.0568 28.9064 73.0568C35.5497 73.0568 41.6724 75.4064 46.5532 79.3488C47.8301 80.3805 49.6509 80.2374 50.794 79.0489C52.161 77.6238 52.0418 75.255 50.5118 74.0198Z" fill="#E776AB"/>
<path d="M96.4338 38.2823C92.699 38.263 90.3692 37.3909 88.9178 36.3482C87.3937 35.2532 86.6432 33.2916 86.9632 31.3905C88.528 22.0723 93.4553 13.959 100.392 8.45389C98.5861 7.02053 96.6461 5.76598 94.5897 4.71228C87.065 11.4417 81.8556 20.903 80.3896 31.6051C80.1017 33.7043 78.9208 35.5861 77.161 36.6453C75.666 37.5449 73.4641 38.2603 70.2413 38.2795C68.4845 38.2905 66.9488 39.6826 66.8819 41.5094C66.8091 43.4297 68.2809 45.0089 70.1075 45.0089C77.1872 45.0089 81.1692 42.4998 83.3361 40.1971C85.503 42.5026 89.485 45.0089 96.5646 45.0089C98.3913 45.0089 99.863 43.4297 99.7903 41.5122C99.7234 39.6881 98.1877 38.2933 96.4338 38.2823Z" fill="#E776AB"/>
<path d="M171.875 66.3298C170.473 66.3298 169.091 66.4206 167.733 66.5857C164.065 62.0792 157.811 57.5315 147.302 56.6594C145.514 56.5053 143.969 57.8947 143.827 59.7462C143.684 61.5978 145.01 63.221 146.791 63.3668C152.939 63.8785 157.241 65.8786 160.246 68.3712C156.613 69.6917 153.254 71.6121 150.269 74.0166C148.739 75.2519 148.62 77.6179 149.987 79.0458C151.13 80.237 152.951 80.3773 154.228 79.3456C159.109 75.4032 165.234 73.0537 171.875 73.0537C176.843 73.0537 181.52 74.366 185.606 76.677C186.38 74.5503 186.965 72.3301 187.352 70.0384C182.675 67.6669 177.424 66.3298 171.875 66.3298Z" fill="#E776AB"/>
<path d="M160.68 104.783C157.812 114.234 152.219 118.214 147.853 119.893C145.343 115.989 143.679 111.449 143.152 106.552C142.955 104.701 141.381 103.353 139.604 103.548C137.821 103.743 136.532 105.419 136.73 107.276C137.876 118.011 143.472 127.362 151.538 133.294H171.872C164.298 133.294 157.399 130.237 152.239 125.252C157.161 122.828 163.539 117.678 166.838 106.814C167.376 105.042 166.433 103.152 164.732 102.59C163.03 102.032 161.218 103.011 160.68 104.783Z" fill="#E776AB"/>
<path d="M115.45 93.975C118.291 93.975 120.336 96.2659 119.585 98.5837C117.197 105.939 109.235 111.342 99.7845 111.342C90.3306 111.342 82.3687 105.939 79.9844 98.5837C79.2327 96.2659 81.2755 93.975 84.1189 93.975H115.45Z" fill="#BB5E97"/>
<path d="M115.806 95.2168C117.348 95.2168 117.899 97.2239 116.58 98.0159C111.679 100.961 105.932 102.66 99.7843 102.66C93.6368 102.66 87.8866 100.965 82.9888 98.0159C81.6695 97.2239 82.2204 95.2168 83.7631 95.2168H115.806Z" fill="white"/>
<path d="M66.5227 92.7356C73.8706 92.7356 79.8273 87.4594 79.8273 80.9508C79.8273 74.4422 73.8706 69.1659 66.5227 69.1659C59.1748 69.1659 53.2181 74.4422 53.2181 80.9508C53.2181 87.4594 59.1748 92.7356 66.5227 92.7356Z" fill="#030202"/>
<path d="M131.836 93.9762C139.184 93.9762 145.141 88.4222 145.141 81.571C145.141 74.7199 139.184 69.1659 131.836 69.1659C124.488 69.1659 118.532 74.7199 118.532 81.571C118.532 88.4222 124.488 93.9762 131.836 93.9762Z" fill="#030202"/>
<path d="M61.0798 90.2536C62.7498 90.2536 64.1036 88.8651 64.1036 87.1523C64.1036 85.4395 62.7498 84.051 61.0798 84.051C59.4098 84.051 58.056 85.4395 58.056 87.1523C58.056 88.8651 59.4098 90.2536 61.0798 90.2536Z" fill="white"/>
<path d="M135.465 82.8111C138.805 82.8111 141.513 80.3118 141.513 77.2288C141.513 74.1458 138.805 71.6465 135.465 71.6465C132.125 71.6465 129.417 74.1458 129.417 77.2288C129.417 80.3118 132.125 82.8111 135.465 82.8111Z" fill="white"/>
<path opacity="0.6" d="M131.837 102.66C135.845 102.66 139.094 101.271 139.094 99.5583C139.094 97.8455 135.845 96.457 131.837 96.457C127.829 96.457 124.58 97.8455 124.58 99.5583C124.58 101.271 127.829 102.66 131.837 102.66Z" fill="#DA0080"/>
<path d="M70.1514 81.5706C73.4914 81.5706 76.199 79.349 76.199 76.6085C76.199 73.8681 73.4914 71.6465 70.1514 71.6465C66.8115 71.6465 64.1039 73.8681 64.1039 76.6085C64.1039 79.349 66.8115 81.5706 70.1514 81.5706Z" fill="white"/>
<path opacity="0.6" d="M65.9182 101.419C69.5921 101.419 72.5705 100.031 72.5705 98.3181C72.5705 96.6053 69.5921 95.2168 65.9182 95.2168C62.2442 95.2168 59.2659 96.6053 59.2659 98.3181C59.2659 100.031 62.2442 101.419 65.9182 101.419Z" fill="#DA0080"/>
<path d="M126.394 90.2536C128.064 90.2536 129.417 88.8651 129.417 87.1523C129.417 85.4395 128.064 84.051 126.394 84.051C124.724 84.051 123.37 85.4395 123.37 87.1523C123.37 88.8651 124.724 90.2536 126.394 90.2536Z" fill="white"/>
<defs>
<linearGradient id="paint0_linear_7_38" x1="123.284" y1="123.514" x2="123.284" y2="175.851" gradientUnits="userSpaceOnUse">
<stop offset="0.0223" stop-color="#7A5A9F"/>
<stop offset="1" stop-color="#9679B1"/>
</linearGradient>
<linearGradient id="paint1_linear_7_38" x1="100.388" y1="0.94205" x2="100.388" y2="133.296" gradientUnits="userSpaceOnUse">
<stop offset="0.0212" stop-color="#F0AFCF"/>
<stop offset="1" stop-color="#E986B4"/>
</linearGradient>
</defs>
</svg>
